<svg xmlns="http://www.w3.org/2000/svg" version="1.1" xmlns:xlink="http://www.w3.org/1999/xlink" xmlns:svgjs="http://svgjs.dev/svgjs" viewBox="0 0 800 800"><defs><linearGradient x1="50%" y1="0%" x2="50%" y2="100%" id="ccchaos-grad"><stop stop-color="hsl(206, 75%, 49%)" stop-opacity="1" offset="0%"></stop><stop stop-color="hsl(331, 90%, 56%)" stop-opacity="1" offset="100%"></stop></linearGradient></defs><g stroke-width="2" stroke="url(#ccchaos-grad)" fill="none" stroke-linecap="round"><path d="M379.88 120.14C389.28 116.07 398.66 112.36 408.01 109.35 417.38 106.84 426.73 105.61 436.06 105.83 445.44 107.14 454.83 110.02 464.24 114.36 473.73 119.63 483.27 126.03 492.87 133.26 502.59 140.78 512.4 148.64 522.29 156.57 532.33 164.09 542.48 171.32 552.7 178.16 563.05 184.22 573.45 189.81 583.86 194.98 594.32 199.4 604.7 203.56 614.91 207.59 625.02 211.17 634.82 214.87 644.17 218.81 653.21 222.63 661.62 226.9 669.26 231.68 676.34 236.58 682.46 242.08 687.49 248.18 691.77 254.5 694.85 261.41 696.65 268.85 697.66 276.51 697.4 284.63 695.91 293.13 693.8 301.79 690.63 310.75 686.53 319.93 682.22 329.18 677.32 338.59 672.01 348.08 667.05 357.59 662.09 367.13 657.31 376.65 653.41 386.18 650.09 395.46 647.4 404.48 645.81 413.52 644.86 422.33 644.51 430.96 645.13 439.67 646.15 448.28 647.43 456.85 649.34 465.63 651.21 474.5 652.89 483.56 654.76 492.97 656.16 502.72 656.94 512.87 657.55 523.49 657.34 534.6 656.27 546.19 654.79 558.19 652.35 570.58 648.96 583.21 645.09 595.9 640.29 608.47 634.63 620.63 628.52 632.16 621.63 642.7 614.07 651.88 606.16 659.67 597.69 665.6 588.75 669.41 579.59 671.48 570.07 671.41 560.28 669.3 550.38 666.06 540.28 661.49 530.05 656.13 519.79 651.2 509.46 646.7 499.1 643.3 488.75 642.05 478.39 642.85 468.07 645.96 457.78 651.78 447.52 659.72 437.33 669.29 427.15 680.17 417.03 691.19 407 701.38 396.96 710.2 387.22 716.29 377.79 719.17 368.33 719.13 359.16 715.64 350.27 709.06 341.34 700.22 332.67 689.38 324.25 677.33 315.78 665.02 307.54 652.93 299.53 641.66 291.43 631.92 283.54 623.77 275.86 617.36 268.05 613.01 260.43 610.25 252.99 608.77 245.41 608.75 237.99 609.32 230.74 610.06 223.35 611.19 216.11 611.79 209.05 611.55 201.86 610.87 194.85 608.98 188.06 605.82 181.16 601.85 174.51 596.58 168.13 590.13 161.71 582.93 155.61 574.75 149.88 565.76 144.18 556.26 138.89 546.21 134.05 535.77 129.33 525.08 125.12 514.2 121.45 503.26 117.95 492.23 115.04 481.24 112.74 470.39 110.65 459.53 109.19 448.84 108.39 438.37 107.8 427.92 107.86 417.68 108.6 407.69 109.49 397.7 111.01 388.19 113.08 379.12 115.25 370.03 117.92 361.36 121.06 353.08 124.19 344.74 127.73 336.73 131.64 329.04 135.45 321.2 139.59 313.58 144 306.12 148.26 298.42 152.76 290.77 157.49 283.11 162.03 275.09 166.78 266.94 171.72 258.62 176.46 249.88 181.42 240.91 186.57 231.72 191.55 222.18 196.75 212.49 202.18 202.75 207.47 192.91 213.02 183.25 218.83 173.96 224.55 165 230.57 156.73 236.86 149.35 243.11 142.74 249.67 137.28 256.53 133.09 263.37 129.81 270.52 127.8 277.97 127 285.41 126.77 293.15 127.38 301.16 128.6 309.18 129.64 317.47 130.73 326 131.59 334.53 131.5 343.3 130.8 352.29 129.39 361.28 126.82 370.48 123.67 379.87 120.15" stroke-dasharray="9 9" transform="rotate(0, 400, 400)" opacity="0.41"></path><path d="M382.24 131.32C391.33 127.3 400.43 123.62 409.54 120.58 418.66 117.98 427.81 116.58 436.97 116.52 446.16 117.48 455.4 119.93 464.67 123.79 474.02 128.6 483.43 134.54 492.91 141.39 502.48 148.61 512.14 156.29 521.87 164.17 531.71 171.78 541.62 179.24 551.57 186.4 561.6 192.9 571.64 198.98 581.62 204.65 591.61 209.6 601.46 214.24 611.07 218.67 620.54 222.58 629.65 226.47 638.27 230.48 646.56 234.24 654.2 238.31 661.07 242.76 667.4 247.2 672.79 252.14 677.16 257.58 680.83 263.15 683.38 269.26 684.75 275.88 685.42 282.64 684.93 289.88 683.33 297.54 681.2 305.31 678.12 313.44 674.21 321.85 670.14 330.33 665.53 339.04 660.56 347.92 655.92 356.83 651.26 365.86 646.75 375 643.05 384.14 639.84 393.16 637.18 402.05 635.52 410.97 634.42 419.8 633.85 428.58 634.18 437.44 634.87 446.34 635.81 455.31 637.36 464.47 638.9 473.83 640.3 483.43 641.93 493.33 643.16 503.58 643.88 514.2 644.5 525.16 644.42 536.51 643.57 548.18 642.4 560.07 640.37 572.13 637.48 584.18 634.18 596.05 630.01 607.56 625.04 618.4 619.67 628.46 613.54 637.36 606.75 644.82 599.64 650.9 591.95 655.18 583.77 657.5 575.38 658.33 566.58 657.31 557.48 654.61 548.25 651.12 538.78 646.68 529.14 641.77 519.46 637.53 509.65 633.9 499.78 631.44 489.9 631.06 479.98 632.62 470.06 636.27 460.16 642.37 450.27 650.3 440.42 659.62 430.58 670.05 420.78 680.53 411.03 690.2 401.29 698.62 391.82 704.53 382.64 707.52 373.43 707.86 364.48 705.02 355.8 699.26 347.07 691.35 338.59 681.43 330.34 670.18 322.03 658.47 313.94 646.69 306.06 635.43 298.09 625.33 290.31 616.53 282.72 609.21 275.03 603.72 267.5 599.72 260.13 597.02 252.65 595.81 245.31 595.36 238.14 595.33 230.84 595.93 223.7 596.32 216.73 596.21 209.65 595.94 202.75 594.76 196.06 592.54 189.31 589.74 182.79 585.8 176.54 580.77 170.28 575.09 164.33 568.41 158.74 560.89 153.21 552.87 148.07 544.19 143.39 535 138.83 525.52 134.76 515.71 131.22 505.7 127.86 495.56 125.06 485.34 122.87 475.13 120.89 464.89 119.52 454.72 118.79 444.68 118.27 434.65 118.38 424.76 119.15 415.05 120.08 405.34 121.61 396.03 123.68 387.11 125.85 378.15 128.51 369.55 131.62 361.26 134.73 352.9 138.24 344.8 142.09 336.92 145.87 328.89 149.96 320.99 154.31 313.18 158.53 305.13 162.98 297.06 167.65 288.93 172.13 280.48 176.82 271.89 181.69 263.13 186.38 254.04 191.26 244.77 196.32 235.37 201.21 225.74 206.31 216.08 211.61 206.51 216.78 196.99 222.18 187.78 227.82 179.07 233.36 170.8 239.16 163.3 245.23 156.76 251.23 150.99 257.52 146.36 264.09 142.94 270.63 140.35 277.46 138.91 284.57 138.54 291.67 138.61 299.05 139.38 306.71 140.64 314.35 141.62 322.27 142.57 330.43 143.25 338.59 142.99 347 142.13 355.64 140.61 364.27 137.99 373.14 134.82 382.23 131.32" stroke-dasharray="9 7" transform="rotate(4.04, 400, 400)" opacity="0.41"></path><path d="M385.28 142.5C394.07 138.53 402.9 134.89 411.77 131.84 420.64 129.17 429.56 127.6 438.52 127.28 447.51 127.9 456.56 129.94 465.66 133.33 474.82 137.64 484.05 143.1 493.34 149.51 502.71 156.37 512.14 163.78 521.63 171.51 531.19 179.12 540.79 186.69 550.39 194.08 560.04 200.93 569.64 207.45 579.13 213.59 588.58 219.07 597.84 224.22 606.81 229.11 615.61 233.45 624.01 237.69 631.9 241.92 639.44 245.82 646.33 249.89 652.45 254.22 658.06 258.44 662.78 263.03 666.52 268.04 669.64 273.07 671.71 278.58 672.7 284.55 673.08 290.6 672.41 297.11 670.73 304.04 668.62 311.05 665.65 318.45 661.92 326.18 658.1 333.97 653.79 342.05 649.14 350.38 644.81 358.73 640.45 367.31 636.2 376.1 632.69 384.88 629.59 393.67 626.97 402.46 625.25 411.27 624.03 420.12 623.26 429.02 623.32 438.01 623.71 447.13 624.34 456.4 625.54 465.83 626.75 475.51 627.87 485.45 629.25 495.62 630.29 506.1 630.91 516.87 631.49 527.85 631.47 539.09 630.78 550.48 629.84 561.89 628.15 573.27 625.68 584.42 622.87 595.2 619.27 605.4 614.92 614.76 610.21 623.25 604.79 630.5 598.72 636.27 592.36 640.77 585.42 643.58 577.98 644.63 570.33 644.47 562.26 642.76 553.85 639.7 545.31 636.19 536.49 632.04 527.47 627.71 518.38 624.21 509.13 621.46 499.78 619.92 490.4 620.36 480.96 622.6 471.48 626.72 462 633.01 452.51 640.89 443.02 649.94 433.55 659.92 424.08 669.87 414.65 679.02 405.22 687.04 396.03 692.78 387.09 695.84 378.14 696.52 369.43 694.27 360.95 689.3 352.43 682.28 344.13 673.28 336.04 662.88 327.9 651.85 319.96 640.51 312.2 629.41 304.37 619.15 296.71 609.88 289.22 601.84 281.64 595.38 274.2 590.27 266.93 586.4 259.55 583.98 252.31 582.44 245.23 581.48 238.04 581.33 231 581.23 224.14 580.91 217.19 580.69 210.42 579.85 203.87 578.22 197.26 576.24 190.89 573.31 184.8 569.41 178.71 565.01 172.93 559.68 167.51 553.49 162.15 546.86 157.19 539.52 152.67 531.59 148.27 523.36 144.36 514.69 140.97 505.7 137.75 496.55 135.08 487.21 133 477.75 131.13 468.24 129.85 458.69 129.19 449.16 128.74 439.63 128.9 430.15 129.7 420.75 130.66 411.36 132.2 402.26 134.27 393.45 136.42 384.62 139.06 376.05 142.13 367.71 145.21 359.3 148.68 351.06 152.48 342.95 156.21 334.71 160.25 326.53 164.54 318.36 168.71 309.99 173.1 301.55 177.71 293.03 182.14 284.25 186.78 275.34 191.58 266.29 196.21 257.02 201.02 247.64 206.01 238.22 210.82 228.71 215.83 219.29 221.03 210.08 226.09 201.05 231.36 192.46 236.85 184.46 242.23 176.97 247.85 170.32 253.72 164.64 259.51 159.72 265.57 155.9 271.89 153.21 278.16 151.25 284.71 150.31 291.52 150.3 298.31 150.6 305.37 151.48 312.7 152.71 320.01 153.6 327.58 154.39 335.41 154.88 343.23 154.45 351.3 153.43 359.62 151.8 367.92 149.13 376.48 145.97 385.27 142.5" stroke-dasharray="2 4" transform="rotate(8.08, 400, 400)" opacity="0.93"></path><path d="M388.88 153.67C397.38 149.78 405.94 146.18 414.55 143.13 423.17 140.4 431.85 138.69 440.58 138.14 449.34 138.43 458.16 140.06 467.04 142.98 475.97 146.79 484.96 151.74 494 157.66 503.1 164.1 512.25 171.17 521.41 178.65 530.63 186.14 539.86 193.72 549.04 201.23 558.22 208.34 567.32 215.19 576.26 221.75 585.13 227.72 593.76 233.37 602.07 238.75 610.19 243.58 617.87 248.25 625.02 252.83 631.83 257.02 637.99 261.28 643.41 265.68 650.39 272.11 659.04 286.41 660.53 294.49 660.66 300.02 659.85 305.98 658.13 312.35 656.05 318.75 653.2 325.55 649.68 332.72 646.09 339.91 642.07 347.45 637.74 355.31 633.71 363.18 629.64 371.35 625.65 379.82 622.32 388.29 619.34 396.86 616.77 405.53 615.01 414.22 613.68 423.04 612.74 432 612.56 441.03 612.67 450.24 612.99 459.66 613.86 469.2 614.77 478.98 615.6 489.01 616.71 499.18 617.55 509.59 618.04 520.2 618.54 530.88 618.53 541.66 617.94 552.43 617.18 563.06 615.74 573.47 613.62 583.45 611.22 592.94 608.11 601.7 604.3 609.5 600.18 616.41 595.4 622.06 590 626.27 584.34 629.36 578.11 630.92 571.38 630.95 564.45 630.05 557.09 627.89 549.36 624.71 541.5 621.36 533.34 617.65 524.94 613.99 516.46 611.28 507.8 609.41 498.99 608.74 490.15 609.94 481.2 612.77 472.19 617.29 463.16 623.72 454.09 631.5 445 640.25 435.91 649.76 426.8 659.19 417.7 667.85 408.6 675.47 399.71 681.01 391.04 684.14 382.35 685.11 373.88 683.4 365.61 679.18 357.31 673.02 349.2 664.93 341.28 655.4 333.32 645.12 325.52 634.33 317.9 623.53 310.21 613.29 302.68 603.75 295.3 595.18 287.84 587.93 280.52 581.86 273.35 576.92 266.09 573.35 258.96 570.69 251.99 568.72 244.93 567.65 238.02 566.84 231.29 566.05 224.49 565.58 217.87 564.73 211.47 563.34 205.03 561.82 198.83 559.55 192.91 556.49 187.01 553.07 181.42 548.82 176.18 543.77 171.01 538.36 166.24 532.23 161.89 525.48 157.68 518.45 153.93 510.9 150.7 502.94 147.63 494.83 145.1 486.4 143.14 477.75 141.38 469.04 140.19 460.17 139.61 451.22 139.22 442.25 139.43 433.22 140.25 424.17 141.23 415.12 142.77 406.26 144.82 397.59 146.97 388.9 149.57 380.36 152.6 371.97 155.64 363.52 159.05 355.16 162.79 346.86 166.47 338.43 170.45 330.02 174.68 321.57 178.79 312.96 183.13 304.26 187.67 295.48 192.05 286.52 196.63 277.46 201.37 268.32 205.95 259.05 210.7 249.77 215.61 240.54 220.36 231.35 225.29 222.36 230.39 213.69 235.36 205.31 240.52 197.46 245.88 190.27 251.13 183.65 256.6 177.88 262.29 173.07 267.9 168.98 273.76 165.92 279.85 163.9 285.89 162.49 292.19 161.98 298.74 162.26 305.25 162.73 312.03 163.65 319.06 164.82 326.07 165.58 333.34 166.19 340.86 166.48 348.36 165.87 356.12 164.7 364.12 162.96 372.12 160.26 380.37 157.11 388.87 153.68" stroke-dasharray="4 1" transform="rotate(12.12, 400, 400)" opacity="0.42"></path><path d="M392.91 164.85C401.13 161.03 409.41 157.49 417.74 154.45 426.09 151.69 434.51 149.85 442.98 149.08 451.48 149.07 460.04 150.3 468.64 152.76 477.29 156.07 485.99 160.49 494.72 165.88 503.5 171.85 512.29 178.5 521.08 185.65 529.9 192.92 538.68 200.39 547.38 207.9 556.05 215.14 564.6 222.23 572.95 229.1 581.2 235.49 589.18 241.6 596.81 247.44 604.23 252.78 611.2 257.92 617.63 262.92 623.73 267.51 629.2 272.08 633.95 276.7 640.01 283.33 647.23 297.44 648.25 305.17 648.18 310.39 647.27 315.99 645.53 321.96 643.5 327.93 640.79 334.28 637.48 341.01 634.14 347.74 630.4 354.85 626.37 362.31 622.63 369.77 618.84 377.59 615.1 385.77 611.95 393.94 609.1 402.29 606.58 410.8 604.8 419.33 603.37 428.05 602.28 436.94 601.88 445.9 601.74 455.06 601.79 464.42 602.35 473.86 602.95 483.52 603.51 493.37 604.35 503.27 604.98 513.32 605.31 523.45 605.7 533.53 605.66 543.57 605.12 553.43 604.46 563.04 603.22 572.26 601.38 580.91 599.31 589 596.6 596.27 593.26 602.52 587.57 610 572.85 617.09 564 616.64 557.75 615.24 551.06 612.88 544.01 609.78 536.82 606.75 529.3 603.6 521.52 600.67 513.67 598.78 505.59 597.76 497.34 597.9 489.05 599.79 480.62 603.14 472.09 607.98 463.54 614.48 454.91 622.12 446.23 630.54 437.55 639.59 428.82 648.5 420.07 656.67 411.31 663.9 402.74 669.25 394.35 672.4 385.95 673.63 377.72 672.42 369.68 668.89 361.61 663.56 353.7 656.36 345.96 647.72 338.19 638.23 330.56 628.09 323.09 617.72 315.56 607.66 308.17 598.05 300.92 589.15 293.6 581.3 286.41 574.44 279.37 568.59 272.24 563.97 265.26 560.23 258.42 557.23 251.51 555.16 244.75 553.5 238.17 552.04 231.54 551.04 225.09 549.9 218.86 548.44 212.62 547.04 206.62 545.1 200.89 542.53 195.2 539.78 189.81 536.32 184.76 532.15 179.81 527.72 175.23 522.61 171.08 516.87 167.06 510.91 163.49 504.4 160.41 497.41 157.51 490.28 155.12 482.76 153.28 474.92 151.63 467.01 150.54 458.85 150.03 450.5 149.71 442.13 149.96 433.59 150.8 424.92 151.8 416.26 153.34 407.67 155.36 399.17 157.48 390.66 160.05 382.2 163.02 373.81 166.01 365.37 169.36 356.95 173.03 348.53 176.65 340.02 180.56 331.46 184.71 322.86 188.77 314.15 193.04 305.35 197.51 296.49 201.84 287.53 206.35 278.51 211.03 269.48 215.55 260.44 220.24 251.46 225.08 242.63 229.77 233.95 234.63 225.56 239.65 217.59 244.54 209.98 249.6 202.96 254.85 196.66 259.98 190.93 265.32 186.04 270.86 182.09 276.32 178.78 281.99 176.42 287.9 175 293.73 174.06 299.81 173.9 306.13 174.39 312.4 174.96 318.92 175.86 325.68 176.93 332.42 177.53 339.4 177.95 346.64 178.03 353.85 177.24 361.32 175.94 369.03 174.1 376.73 171.37 384.69 168.24 392.9 164.86" stroke-dasharray="11 8" transform="rotate(16.16, 400, 400)" opacity="0.90"></path><path d="M397.22 176.03C405.14 172.3 413.13 168.82 421.18 165.81 429.24 163.02 437.37 161.08 445.55 160.11 453.75 159.82 462.01 160.68 470.3 162.69 478.62 165.49 486.98 169.38 495.35 174.22 503.74 179.66 512.13 185.83 520.48 192.57 528.84 199.52 537.12 206.77 545.3 214.16 553.42 221.41 561.38 228.62 569.12 235.69 576.73 242.38 584.04 248.86 590.98 255.12 597.71 260.92 603.98 266.52 609.73 271.96 615.15 277.01 619.96 281.97 624.09 286.92 629.31 293.95 635.25 308.37 635.88 316.02 635.65 321.11 634.66 326.52 632.94 332.26 630.99 337.96 628.42 344.01 625.32 350.43 622.22 356.83 618.76 363.6 615.03 370.74 611.57 377.87 608.05 385.38 604.55 393.28 601.58 401.17 598.85 409.27 596.4 417.56 594.6 425.87 593.1 434.39 591.89 443.09 591.29 451.82 590.92 460.76 590.71 469.87 590.99 479 591.31 488.3 591.59 497.7 592.17 507.09 592.58 516.51 592.73 525.9 592.99 535.14 592.88 544.2 592.34 552.96 591.74 561.37 590.64 569.28 589 576.53 586.01 586.1 576.88 599.24 570.76 602.37 563.81 603.21 547.24 599.05 537.8 595.04 531.25 592.46 524.37 589.95 517.2 587.8 509.96 586.71 502.47 586.51 494.78 587.41 487.05 589.89 479.14 593.69 471.11 598.76 463.06 605.28 454.89 612.74 446.64 620.82 438.38 629.41 430.05 637.8 421.67 645.49 413.28 652.34 405.03 657.47 396.94 660.63 388.84 662.09 380.89 661.33 373.08 658.44 365.26 653.89 357.58 647.56 350.04 639.8 342.47 631.15 335.03 621.72 327.72 611.91 320.37 602.18 313.14 592.67 306.05 583.63 298.9 575.4 291.86 567.95 284.97 561.35 278.01 555.81 271.19 551.09 264.5 547.1 257.78 544.03 251.2 541.44 244.79 539.18 238.35 537.48 232.11 535.82 226.07 534.03 220.05 532.45 214.26 530.52 208.74 528.15 203.27 525.73 198.11 522.75 193.28 519.18 188.54 515.46 184.18 511.13 180.23 506.2 176.41 501.12 173.03 495.48 170.12 489.35 167.38 483.1 165.14 476.41 163.43 469.33 161.9 462.2 160.9 454.73 160.46 446.98 160.21 439.21 160.5 431.18 161.36 422.93 162.37 414.69 163.89 406.42 165.88 398.14 167.97 389.86 170.49 381.56 173.39 373.25 176.32 364.91 179.61 356.53 183.19 348.11 186.75 339.64 190.58 331.1 194.65 322.5 198.63 313.85 202.84 305.14 207.23 296.4 211.5 287.63 215.94 278.87 220.55 270.17 225.02 261.54 229.64 253.06 234.42 244.82 239.05 236.81 243.84 229.16 248.78 222.01 253.59 215.26 258.57 209.13 263.71 203.74 268.74 198.9 273.96 194.87 279.37 191.73 287.45 188.27 304.54 185.99 313.59 186.66 319.65 187.27 325.94 188.11 332.46 189.03 338.94 189.45 345.67 189.66 352.63 189.53 359.58 188.58 366.77 187.14 374.2 185.21 381.62 182.47 389.29 179.36 397.21 176.03" stroke-dasharray="8 2" transform="rotate(20.200000000000003, 400, 400)" opacity="0.36"></path><path d="M401.63 187.21C409.25 183.57 416.94 180.17 424.69 177.2 432.44 174.4 440.26 172.38 448.11 171.23 455.98 170.68 463.9 171.2 471.83 172.77 479.79 175.09 487.76 178.43 495.71 182.72 503.68 187.6 511.62 193.24 519.49 199.48 527.34 206.03 535.09 212.95 542.7 220.11 550.25 227.24 557.6 234.42 564.69 241.56 571.66 248.44 578.31 255.17 584.57 261.74 590.63 267.93 596.23 273.95 601.31 279.8 606.09 285.28 610.29 290.67 613.85 295.99 618.31 303.54 623.12 318.62 623.44 326.39 623.08 331.52 622.05 336.89 620.37 342.54 618.51 348.12 616.1 354.01 613.22 360.22 610.35 366.4 607.16 372.93 603.71 379.81 600.53 386.68 597.26 393.91 593.99 401.53 591.2 409.14 588.6 416.96 586.22 424.96 584.42 432.97 582.87 441.18 581.55 449.55 580.79 457.93 580.21 466.47 579.78 475.12 579.79 483.76 579.84 492.48 579.87 501.22 580.19 509.87 580.37 518.47 580.35 526.9 580.45 535.13 580.23 543.07 579.66 550.6 578.57 561.03 573.91 577.7 570.24 583.41 565.82 587.14 554.21 588.72 547.1 586.88 542.07 585.2 536.62 583.04 530.79 580.61 524.85 578.6 518.58 576.78 512 575.42 505.35 575.11 498.44 575.66 491.3 577.24 484.12 580.25 476.75 584.4 469.21 589.64 461.66 596.12 453.97 603.36 446.16 611.08 438.35 619.2 430.43 627.09 422.43 634.31 414.43 640.78 406.53 645.7 398.76 648.85 390.98 650.49 383.31 650.13 375.77 647.82 368.22 644.01 360.78 638.52 353.46 631.63 346.12 623.83 338.88 615.18 331.77 606.01 324.63 596.74 317.59 587.49 310.67 578.51 303.71 570.1 296.86 562.26 290.14 555.11 283.38 548.83 276.75 543.28 270.26 538.4 263.73 534.37 257.36 530.86 251.16 527.75 244.94 525.25 238.92 522.91 233.11 520.6 224.54 517.51 208.79 510.2 201.73 505.55 195.16 500.34 184.15 487.18 179.83 479.27 177.26 473.74 175.17 467.77 173.58 461.37 172.17 454.92 171.27 448.09 170.9 440.92 170.71 433.73 171.04 426.22 171.91 418.42 172.92 410.62 174.43 402.71 176.38 394.73 178.43 386.75 180.89 378.69 183.72 370.57 186.59 362.43 189.79 354.22 193.29 345.95 196.76 337.66 200.5 329.3 204.48 320.9 208.39 312.49 212.5 304.06 216.81 295.64 221.01 287.26 225.38 278.95 229.91 270.77 234.31 262.74 238.87 254.92 243.57 247.43 248.14 240.2 252.86 233.41 257.72 227.15 262.46 221.3 267.35 216.09 272.4 211.6 279.9 206.01 295.63 199.43 303.89 198.33 309.39 198.08 315.1 198.35 321.01 199.04 326.88 199.62 332.95 200.35 339.25 201.09 345.51 201.33 351.99 201.32 358.7 200.98 365.39 199.86 372.31 198.3 379.47 196.3 386.61 193.54 394 190.47 401.62 187.21" stroke-dasharray="3 2" transform="rotate(24.24, 400, 400)" opacity="0.78"></path><path d="M405.98 198.39C413.29 194.85 420.67 191.54 428.09 188.62 435.51 185.83 442.99 183.74 450.49 182.44 458 181.67 465.54 181.86 473.07 183.03 480.62 184.87 488.17 187.68 495.67 191.4 503.17 195.7 510.62 200.77 517.97 206.47 525.29 212.53 532.48 219.02 539.5 225.84 546.45 232.72 553.18 239.75 559.64 246.82 565.96 253.74 571.95 260.59 577.56 267.34 582.97 273.81 587.93 280.14 592.39 286.33 596.58 292.21 600.22 297.98 603.25 303.66 607.03 311.77 610.88 327.69 610.93 335.73 610.49 340.99 609.45 346.44 607.83 352.09 606.07 357.66 603.83 363.48 601.16 369.58 598.52 375.63 595.59 381.99 592.43 388.65 589.5 395.31 586.48 402.29 583.44 409.61 580.82 416.92 578.35 424.42 576.05 432.06 574.26 439.7 572.67 447.5 571.27 455.4 570.37 463.3 569.61 471.29 568.97 479.32 568.75 487.31 568.55 495.29 568.34 503.19 568.41 510.97 568.37 518.59 568.16 525.95 568.09 533.08 567.76 539.83 567.12 546.09 563.87 561.08 554.48 573.9 549.62 574.54 544.12 573.84 530.78 569.42 523.05 566.61 517.67 565.22 511.96 564.13 505.95 563.54 499.87 563.98 493.51 565.22 486.92 567.4 480.28 570.84 473.43 575.26 466.4 580.61 459.35 586.99 452.14 593.98 444.78 601.32 437.42 608.98 429.93 616.37 422.33 623.13 414.73 629.23 407.21 633.92 399.77 637.04 392.33 638.83 384.98 638.82 377.72 637.06 370.46 633.93 363.28 629.23 356.21 623.2 349.12 616.25 342.13 608.41 335.24 599.95 328.32 591.27 321.51 582.42 314.8 573.66 308.06 565.27 301.43 557.25 294.92 549.75 288.38 542.94 281.97 536.72 275.69 531.1 269.41 526.22 263.26 521.86 257.3 517.91 251.33 514.57 245.55 511.48 239.99 508.53 231.81 504.65 216.82 496.58 210.13 491.97 203.93 487.04 193.58 475.02 189.54 467.86 187.15 462.88 185.22 457.47 183.76 451.64 182.47 445.78 181.66 439.51 181.36 432.88 181.22 426.23 181.59 419.22 182.46 411.88 183.47 404.53 184.96 397.04 186.86 389.43 188.86 381.82 191.26 374.09 194.01 366.27 196.79 358.46 199.91 350.55 203.31 342.58 206.69 334.63 210.33 326.62 214.21 318.59 218.02 310.6 222.05 302.63 226.26 294.72 230.37 286.91 234.66 279.22 239.1 271.73 243.43 264.43 247.91 257.41 252.53 250.76 257.03 244.41 261.67 238.52 266.45 233.18 271.11 228.24 275.93 223.93 280.88 220.3 288.24 215.87 303.62 211.05 311.67 210.48 319.8 210.62 336.93 212.28 345.95 213.11 351.99 213.13 358.25 212.91 364.71 212.37 371.15 211.09 377.81 209.42 384.69 207.35 391.56 204.6 398.65 201.57 405.97 198.39" stroke-dasharray="8 9" transform="rotate(28.28, 400, 400)" opacity="0.65"></path><path d="M410.1 209.56C417.09 206.14 424.14 202.93 431.21 200.07 438.29 197.31 445.4 195.18 452.51 193.75 459.64 192.78 466.77 192.68 473.88 193.46 480.99 194.86 488.07 197.16 495.09 200.31 502.1 204.03 509.03 208.5 515.84 213.61 522.6 219.11 529.22 225.1 535.64 231.47 541.99 237.99 548.09 244.72 553.92 251.59 559.61 258.4 564.97 265.23 569.95 272.02 574.74 278.63 579.11 285.15 582.99 291.56 586.64 297.73 589.77 303.8 592.34 309.79 595.51 318.39 598.54 335.17 598.4 343.52 597.9 348.98 596.87 354.55 595.32 360.26 593.68 365.9 591.61 371.72 589.15 377.74 586.74 383.73 584.06 389.95 581.17 396.43 578.49 402.89 575.71 409.62 572.89 416.63 570.44 423.63 568.1 430.75 565.89 437.96 564.12 445.17 562.51 452.47 561.05 459.8 560.02 467.12 559.11 474.45 558.3 481.73 557.86 488.96 557.44 496.09 557.01 503.05 556.85 509.88 556.59 516.46 556.2 522.71 555.72 531.51 553.6 546.14 551.77 551.62 546.24 557.8 533.64 558.85 527.91 557.01 521.65 555.12 507.21 552.24 499.13 552.2 493.58 553.32 487.76 555.18 481.69 557.86 475.58 561.65 469.24 566.27 462.7 571.64 456.15 577.88 449.41 584.59 442.51 591.55 435.61 598.73 428.56 605.64 421.37 611.96 414.19 617.68 407.05 622.15 399.97 625.2 392.89 627.11 385.87 627.41 378.92 626.13 371.98 623.63 365.1 619.69 358.3 614.47 351.49 608.38 344.76 601.37 338.13 593.68 331.47 585.66 324.9 577.35 318.44 568.96 311.96 560.76 305.57 552.77 299.3 545.12 293.02 537.98 286.86 531.31 280.84 525.12 274.81 519.55 268.93 514.45 263.23 509.76 257.54 505.63 252.03 501.78 246.74 498.15 238.97 493.33 224.81 484.04 218.51 479.16 212.69 474.18 203.02 462.64 199.27 455.95 196.17 448.84 192.42 432.66 191.83 423.6 191.74 417.43 192.14 410.9 193.01 404.03 194.02 397.15 195.47 390.1 197.33 382.92 199.27 375.74 201.59 368.43 204.25 361.03 206.95 353.65 209.96 346.18 213.25 338.66 216.53 331.18 220.07 323.67 223.82 316.19 227.54 308.77 231.45 301.41 235.55 294.17 239.57 287.07 243.76 280.13 248.1 273.45 252.35 266.98 256.74 260.83 261.26 255.09 265.68 249.64 270.24 244.67 274.92 240.24 281.87 234.44 296.3 226.45 303.8 224.28 311.33 223.08 327.09 223.15 335.34 223.96 340.85 224.34 346.54 224.74 352.41 225.06 358.25 224.86 364.28 224.42 370.5 223.68 376.7 222.27 383.1 220.49 389.7 218.37 396.29 215.64 403.09 212.67 410.09 209.57" stroke-dasharray="4 9" transform="rotate(32.32, 400, 400)" opacity="0.81"></path><path d="M413.83 220.74C420.49 217.44 427.19 214.33 433.89 211.55 440.6 208.84 447.32 206.68 454.03 205.16 460.74 204.01 467.44 203.65 474.1 204.09 480.75 205.06 487.35 206.87 493.86 209.48 500.36 212.61 506.75 216.47 513 220.97 519.2 225.87 525.24 231.29 531.07 237.13 536.81 243.18 542.31 249.51 547.53 256.04 552.61 262.6 557.37 269.25 561.76 275.93 565.97 282.52 569.78 289.07 573.14 295.57 576.29 301.9 578.96 308.16 581.13 314.34 583.07 320.34 584.49 326.28 585.37 332.18 586.12 340.8 584.81 357.92 582.86 366.56 581.34 372.27 579.44 378.11 577.2 384.08 575.01 390.02 572.57 396.12 569.94 402.41 567.49 408.68 564.94 415.15 562.34 421.81 560.06 428.48 557.84 435.19 555.73 441.92 554 448.64 552.38 455.37 550.87 462.06 549.75 468.73 548.72 475.33 547.75 481.81 547.12 488.22 546.51 494.45 545.88 500.45 545.27 509.08 543.75 524.24 542.62 530.47 535.35 542.21 522.88 543.97 517.71 542.53 512.06 541.34 498.99 540.4 491.63 541.4 486.58 543.12 481.26 545.51 475.68 548.61 470.07 552.66 464.23 557.4 458.18 562.74 452.11 568.79 445.84 575.2 439.41 581.75 432.96 588.47 426.35 594.9 419.59 600.78 412.84 606.13 406.1 610.37 399.39 613.35 392.69 615.34 386.03 615.91 379.42 615.06 372.81 613.13 366.25 609.88 359.76 605.45 353.26 600.19 346.83 594.01 340.47 587.12 334.11 579.84 327.83 572.16 321.64 564.28 315.44 556.44 309.33 548.65 303.34 541.05 297.35 533.8 291.47 526.87 285.72 520.32 279.99 514.25 274.4 508.58 268.98 503.27 263.59 498.45 258.38 493.93 253.38 489.64 246.06 483.86 232.76 473.08 226.87 467.74 221.44 462.45 212.47 450.87 209.01 444.41 206.16 437.64 202.79 422.44 202.3 413.99 202.28 408.23 202.69 402.15 203.56 395.73 204.56 389.32 205.97 382.74 207.77 376.04 209.65 369.34 211.88 362.53 214.45 355.64 217.05 348.78 219.95 341.86 223.12 334.91 226.29 328.02 229.7 321.14 233.33 314.33 236.93 307.6 240.72 300.97 244.7 294.51 248.61 288.2 252.68 282.1 256.91 276.29 261.05 270.7 265.34 265.45 269.75 260.62 276.31 254.02 289.92 243.77 296.98 240.25 304.04 237.7 318.71 235.44 326.35 235.47 334.04 235.76 350.13 236.73 358.54 236.91 364.17 236.5 369.98 235.85 375.95 234.92 381.91 233.38 388.04 231.52 394.35 229.36 400.66 226.66 407.15 223.75 413.81 220.75" stroke-dasharray="1 6" transform="rotate(36.36, 400, 400)" opacity="0.63"></path><path d="M417.02 231.92C423.35 228.74 429.68 225.76 436 223.06 442.32 220.41 448.63 218.25 454.91 216.65 467.48 214.48 479.88 215.24 491.9 218.94 503.81 224.54 515.19 232.75 525.76 242.94 536 254.13 545.18 266.44 553.01 279.27 560.23 292.02 565.86 304.8 569.66 317.39 572.74 329.49 573.95 341.43 573.27 353.25 572.12 364.7 569.39 376.3 565.3 388.13 563.33 394 561.12 399.97 558.73 406.05 556.51 412.11 554.19 418.3 551.78 424.6 549.67 430.9 547.59 437.17 545.57 443.37 543.89 449.58 542.28 455.71 540.75 461.73 538.69 473.68 536.8 484.98 534.95 495.25 534.02 505.01 532.68 513.29 530.73 519.68 527.79 526.9 516.27 530.39 507.25 528.61 500.59 528.43 492.65 528.99 483.58 531.14 474.35 536.41 464.07 544.07 452.92 553.89 447.32 559.71 441.52 565.79 435.54 571.93 429.55 578.18 423.38 584.15 417.06 589.6 410.74 594.59 404.41 598.59 398.1 601.48 391.79 603.53 385.51 604.31 379.25 603.84 366.76 600.08 354.4 591.84 342.33 580.23 330.25 566.89 318.45 552.21 307.07 537.35 295.73 523.31 284.84 510.22 274.6 498.35 264.5 488.06 255.13 478.74 246.71 470.05 238.59 462.38 231.55 454.65 225.81 446.5 220.53 438.69 216.66 430.01 214.38 420.32 213.18 412.92 213.03 396.71 214.12 387.91 215.1 381.94 216.46 375.85 218.19 369.65 220 363.47 222.15 357.21 224.6 350.9 229.63 338.38 235.74 325.82 242.73 313.59 249.63 301.75 257.28 290.58 265.51 280.54 273.49 271.28 282.03 263.54 291.01 257.66 299.71 252.75 308.9 249.72 318.53 248.55 327.93 247.69 337.86 247.94 348.3 248.82 358.58 248.51 369.47 247.72 380.93 246.08 386.63 244.43 392.5 242.5 398.51 240.32 404.52 237.66 410.69 234.83 417.01 231.92" stroke-dasharray="0 4" transform="rotate(40.400000000000006, 400, 400)" opacity="0.28"></path><path d="M419.57 243.1C431.49 236.87 443.37 231.72 455.05 228.25 466.72 225.79 478.15 225.93 489.13 228.71 499.99 233.19 510.26 240.13 519.7 249.04 528.83 259.02 536.92 270.28 543.72 282.26 550 294.42 554.81 306.82 557.97 319.16 560.55 331.24 561.47 343.21 560.72 355.02 559.63 366.56 557.15 378.12 553.45 389.69 550.01 401.18 545.86 412.86 541.23 424.68 537.59 436.49 534.02 447.86 530.67 458.61 528.46 469.23 526.34 478.99 524.22 487.57 522.11 499.07 515.96 512.97 510.99 515.16 507.35 516 502.57 515.88 496.65 515.38 490.59 516.31 483.38 518.11 475.11 521.4 466.7 527.42 457.31 535.41 447.05 545.08 436.74 556.53 425.64 568.11 413.87 578.42 402.1 587.16 390.26 591.97 378.52 592.49 366.79 589.76 355.15 582.96 343.76 572.96 332.39 561.17 321.27 547.79 310.56 533.83 299.91 520.2 289.7 507.07 280.12 494.81 270.7 483.74 261.99 473.53 254.19 463.99 246.7 455.38 240.22 446.94 234.97 438.38 230.15 430.2 226.65 421.47 224.63 412.06 223.11 402.7 223.08 392.48 224.67 381.41 226.68 370.34 230.1 358.97 234.72 347.56 239.51 336.27 245.35 325.13 252.02 314.47 258.64 304.18 265.99 294.69 273.91 286.36 281.63 278.7 289.89 272.5 298.58 267.97 307.04 264.15 315.96 261.93 325.28 261.21 334.4 260.5 344.01 260.61 354.05 261.12 363.96 260.38 374.4 259.16 385.33 257.15 396.21 253.18 407.63 248.37 419.56 243.1" stroke-dasharray="9 3" transform="rotate(44.44, 400, 400)" opacity="0.84"></path><path d="M421.36 254.27C432.53 248.35 443.58 243.4 454.36 239.93 465.13 237.25 475.58 236.86 485.52 238.8 495.35 242.23 504.56 247.93 512.92 255.53 521.01 264.22 528.09 274.26 533.96 285.17 539.4 296.46 543.5 308.16 546.11 319.96 548.27 331.69 548.97 343.39 548.2 354.93 547.2 366.32 544.97 377.63 541.67 388.81 538.62 399.94 534.89 411.05 530.68 422.03 527.31 433.02 523.92 443.33 520.63 452.83 518.32 462.21 516.03 470.6 513.69 477.76 511.13 487.34 504.42 498.65 499.5 500.66 496.01 501.84 491.53 502.45 486.05 502.99 480.5 505 473.91 507.92 466.35 512.17 458.7 518.75 450.12 526.9 440.71 536.29 431.26 547.07 421.04 557.77 410.15 567.25 399.26 575.36 388.26 580.05 377.3 581 366.37 579.18 355.51 573.71 344.85 565.26 334.24 555.05 323.86 543.1 313.86 530.29 303.95 517.41 294.47 504.64 285.59 492.38 276.88 480.95 268.86 470.19 261.7 460.07 254.83 450.72 248.93 441.66 244.17 432.7 239.81 424.13 236.68 415.29 234.91 406.07 233.59 396.93 233.66 387.23 235.22 376.96 237.17 366.7 240.42 356.38 244.8 346.22 249.35 336.16 254.88 326.42 261.21 317.31 267.52 308.51 274.53 300.58 282.1 293.81 289.52 287.57 297.47 282.66 305.82 279.23 313.99 276.23 322.59 274.55 331.56 274.05 340.37 273.34 349.61 273.2 359.22 273.26 368.74 272.1 378.7 270.46 389.07 268.14 399.4 264.08 410.18 259.34 421.36 254.27" stroke-dasharray="2 3" transform="rotate(48.48, 400, 400)" opacity="0.92"></path><path d="M422.32 265.45C432.72 259.85 442.92 255.13 452.8 251.7 462.65 248.88 472.13 248.04 481.07 249.25 489.9 251.7 498.08 256.23 505.44 262.54 512.56 269.88 518.73 278.6 523.77 288.29 528.46 298.46 531.94 309.2 534.11 320.18 535.92 331.25 536.46 342.37 535.72 353.38 534.83 364.34 532.87 375.18 529.94 385.81 527.26 396.41 523.94 406.84 520.13 416.96 517.03 427.09 513.82 436.39 510.64 444.77 508.27 453.06 505.85 460.29 503.35 466.35 500.42 474.51 493.2 484.41 488.3 486.73 484.9 488.46 480.66 489.92 475.56 491.53 470.42 494.53 464.37 498.41 457.46 503.42 450.48 510.36 442.65 518.51 434.06 527.53 425.42 537.58 416.05 547.41 406.03 556.07 396.02 563.56 385.87 568.09 375.74 569.39 365.64 568.35 355.58 564.09 345.71 557.11 335.9 548.46 326.3 538.03 317.06 526.53 307.92 514.69 299.2 502.62 291.05 490.76 283.08 479.38 275.76 468.46 269.26 458.07 263.02 448.26 257.7 438.8 253.43 429.58 249.52 420.7 246.74 411.78 245.22 402.74 244.1 393.79 244.25 384.55 245.77 375.05 247.64 365.55 250.72 356.23 254.84 347.26 259.12 338.37 264.33 329.97 270.3 322.28 276.27 314.83 282.92 308.29 290.09 302.85 297.17 297.77 304.75 293.88 312.72 291.25 320.55 288.83 328.79 287.45 337.36 286.97 345.81 286.11 354.63 285.62 363.78 285.22 372.85 283.64 382.3 281.61 392.07 279.02 401.82 274.93 411.93 270.3 422.32 265.45" stroke-dasharray="1 6" transform="rotate(52.52, 400, 400)" opacity="0.63"></path><path d="M422.43 276.63C432.04 271.37 441.38 266.9 450.35 263.56 459.3 260.67 467.83 259.47 475.8 260.04 483.67 261.64 490.89 265.08 497.32 270.15 503.56 276.15 508.89 283.51 513.21 291.87 517.25 300.77 520.21 310.33 522.01 320.26 523.56 330.38 523.99 340.66 523.3 350.89 522.54 361.15 520.83 371.31 518.27 381.21 515.93 391.12 513 400.77 509.58 410.02 506.74 419.28 503.74 427.65 500.68 435.06 497.05 445.6 489.98 461.26 486.13 466.39 482.35 470.74 472.09 477.29 465.29 481.05 460.51 484.91 454.93 489.55 448.6 495.12 442.23 502.22 435.09 510.22 427.25 518.77 419.38 528.07 410.84 537.03 401.69 544.89 392.54 551.77 383.25 556.1 373.97 557.65 364.71 557.29 355.49 554.1 346.44 548.47 337.45 541.34 328.67 532.44 320.23 522.37 311.9 511.78 303.96 500.71 296.56 489.58 289.34 478.65 282.73 467.96 276.89 457.65 271.29 447.74 266.53 438.15 262.74 428.87 259.28 419.86 256.84 410.97 255.56 402.16 254.62 393.44 254.85 384.67 256.32 375.88 258.11 367.1 261 358.71 264.84 350.83 268.85 343 273.72 335.78 279.29 329.33 284.9 323.04 291.14 317.64 297.89 313.26 304.58 309.09 311.74 305.94 319.28 303.82 326.72 301.72 334.54 300.43 342.66 299.81 350.69 298.7 359.06 297.82 367.69 296.93 376.27 294.97 385.17 292.62 394.31 289.81 403.43 285.72 412.83 281.24 422.43 276.63" stroke-dasharray="8 1" transform="rotate(56.56, 400, 400)" opacity="0.90"></path><path d="M421.68 287.81C430.47 282.9 438.95 278.71 447.03 275.5 455.08 272.6 462.69 271.14 469.74 271.19 476.71 272.04 483.04 274.51 488.63 278.43 494.05 283.17 498.66 289.17 502.34 296.17 505.82 303.7 508.34 311.96 509.85 320.67 511.19 329.63 511.55 338.84 510.96 348.09 510.33 357.42 508.87 366.69 506.66 375.73 504.65 384.8 502.08 393.6 499.02 401.98 496.45 410.36 493.67 417.88 490.76 424.51 487.15 433.95 479.81 448.26 475.81 453.33 471.88 458.05 461.78 466.55 455.34 471.58 450.87 476.13 445.72 481.32 439.91 487.22 434.08 494.31 427.59 502.01 420.47 510.01 413.32 518.52 405.57 526.63 397.27 533.71 388.98 539.99 380.55 544.07 372.13 545.81 363.73 545.99 355.37 543.74 347.17 539.35 339.02 533.63 331.08 526.24 323.46 517.65 315.94 508.45 308.8 498.59 302.18 488.47 295.71 478.34 289.81 468.23 284.62 458.36 279.65 448.7 275.45 439.3 272.13 430.22 269.1 421.32 267 412.62 265.93 404.15 265.17 395.74 265.46 387.46 266.88 379.37 268.56 371.27 271.25 363.73 274.81 356.81 278.53 349.91 283.03 343.69 288.2 338.25 293.41 332.89 299.21 328.38 305.5 324.76 311.76 321.22 318.47 318.54 325.52 316.69 332.52 314.71 339.87 313.34 347.49 312.45 355.04 311.02 362.89 309.72 370.97 308.38 379 306.08 387.29 303.45 395.76 300.49 404.23 296.46 412.89 292.15 421.68 287.81" stroke-dasharray="5 9" transform="rotate(60.599999999999994, 400, 400)" opacity="0.63"></path><path d="M420.09 298.98C428.05 294.45 435.68 290.56 442.89 287.52 450.07 284.68 456.8 283.04 462.99 282.68 471.86 283.74 486.13 293.37 491.25 301.4 494.24 307.56 496.4 314.45 497.69 321.85 498.86 329.53 499.19 337.53 498.7 345.64 498.21 353.88 497 362.12 495.1 370.19 493.4 378.31 491.17 386.2 488.47 393.73 486.16 401.25 483.59 408.02 480.86 414.01 477.33 422.61 469.91 436.19 465.83 441.48 461.81 446.72 451.91 457.07 445.82 463.12 441.62 468.13 436.86 473.65 431.53 479.67 426.21 486.57 420.31 493.85 413.87 501.24 407.42 508.95 400.43 516.21 392.97 522.54 385.5 528.2 377.93 532.02 370.37 533.86 362.83 534.47 355.33 533.03 347.99 529.73 340.7 525.31 333.61 519.35 326.83 512.23 320.14 504.48 313.8 495.98 307.94 487.07 302.22 478 297.03 468.78 292.48 459.65 288.13 450.6 284.47 441.7 281.61 433.07 278.99 424.55 277.2 416.25 276.35 408.24 275.74 400.28 276.08 392.55 277.43 385.13 279.01 377.7 281.49 370.91 284.76 364.8 288.16 358.69 292.29 353.27 297.02 348.61 301.81 343.96 307.15 340.07 312.94 336.95 318.72 333.81 324.93 331.36 331.46 329.56 337.96 327.54 344.78 325.97 351.84 324.74 358.87 322.97 366.15 321.27 373.61 319.52 381.05 316.94 388.69 314.12 396.46 311.07 404.23 307.14 412.13 303.04 420.09 298.98" stroke-dasharray="1 9" transform="rotate(64.64, 400, 400)" opacity="0.17"></path><path d="M417.73 310.16C424.86 306.02 431.63 302.45 438 299.62 447.29 296.03 463.33 294.74 469.86 297.23 475.61 301.54 483.5 315.36 485.54 324.22 486.59 330.56 486.92 337.28 486.54 344.2 486.18 351.23 485.2 358.36 483.62 365.41 482.19 372.5 480.28 379.46 477.92 386.15 475.86 392.85 473.53 398.94 471 404.41 467.61 412.34 460.26 425.59 456.2 431.22 452.17 436.99 442.54 448.86 436.79 455.6 432.86 460.86 428.46 466.49 423.6 472.42 418.75 478.98 413.41 485.74 407.62 492.44 401.83 499.33 395.58 505.77 388.93 511.36 382.28 516.42 375.55 519.94 368.84 521.82 362.16 522.75 355.52 521.97 349.05 519.61 342.62 516.34 336.37 511.71 330.42 506 324.55 499.7 319.01 492.61 313.91 485.02 308.93 477.2 304.43 469.1 300.5 460.96 296.75 452.79 293.61 444.66 291.18 436.74 288.95 428.85 287.46 421.16 286.8 413.76 286.34 406.39 286.71 399.28 287.98 392.52 289.44 385.76 291.71 379.66 294.67 374.22 297.75 368.76 301.49 363.97 305.77 359.86 310.11 355.72 314.97 352.24 320.22 349.39 325.5 346.45 331.16 344.06 337.12 342.16 343.07 340 349.31 338.17 355.77 336.57 362.21 334.48 368.86 332.42 375.67 330.33 382.46 327.55 389.42 324.61 396.45 321.53 403.49 317.76 410.61 313.92 417.73 310.16" stroke-dasharray="7 10" transform="rotate(68.68, 400, 400)" opacity="1.00"></path><path d="M414.69 321.34C427.27 313.66 438.44 308.56 447.76 306.64 456.91 305.87 464.01 308.96 468.65 315.29 473.05 322.9 475.03 332.97 474.49 344.29 474.09 356.05 471.68 368.31 467.36 380.1 464.02 391.89 459.55 402.01 454.35 410.48 450.11 419.34 444.78 427.39 438.42 435.12 432.49 444.44 425.06 454.59 416.22 465.41 407.44 477.91 397.04 490.17 385.32 500.18 373.59 508.56 361.73 511.44 350.44 509.01 339.3 503.76 328.95 494.18 320.12 482.03 311.7 468.83 305.05 454.53 300.86 440.48 297.29 426.42 296.35 412.9 298.53 400.74 301.34 388.57 306.9 378.78 314.46 371.36 322.26 363.73 331.85 358.11 342.53 354.19 353.24 349.23 365 344.9 377.2 340.78 389.41 334.47 402.11 327.76 414.69 321.34" stroke-dasharray="5 9" transform="rotate(72.72, 400, 400)" opacity="0.65"></path><path d="M411.08 332.52C422 325.71 431.59 321.09 439.52 319.07 447.33 317.74 453.36 319.56 457.3 324.11 461.1 329.57 462.89 337.28 462.56 346.36 462.38 355.78 460.46 365.99 456.81 376.24 453.89 386.49 449.84 395.79 445.04 404.07 440.94 412.71 435.85 421.01 429.88 429.19 424.26 438.53 417.42 448.45 409.48 458.59 401.61 469.76 392.45 480.42 382.27 489 372.09 496.36 361.9 499.29 352.28 497.95 342.78 494.51 334.03 487.38 326.64 477.85 319.56 467.33 314.05 455.5 310.65 443.54 307.73 431.46 307.07 419.65 309.08 408.87 311.6 398.1 316.47 389.3 323.09 382.43 329.93 375.32 338.35 369.73 347.75 365.42 357.2 360.17 367.57 355.38 378.3 350.86 389.05 344.66 400.17 338.35 411.08 332.52" stroke-dasharray="1 0" transform="rotate(76.76, 400, 400)" opacity="0.82"></path><path d="M407.05 343.69C416.32 337.78 424.4 333.72 431.04 331.75 440.14 330.58 450.09 340.71 450.75 350.62 450.77 357.93 449.28 366.22 446.26 375 443.77 383.77 440.18 392.19 435.86 400.11 432.04 408.3 427.31 416.48 421.84 424.61 416.65 433.51 410.47 442.76 403.46 451.88 396.51 461.57 388.58 470.62 379.91 477.83 371.23 484.14 362.66 486.98 354.65 486.46 346.73 484.47 339.51 479.45 333.48 472.31 327.68 464.35 323.23 455.01 320.56 445.25 318.24 435.33 317.82 425.36 319.64 416.03 321.83 406.7 326.02 398.83 331.68 392.42 337.53 385.78 344.75 380.23 352.8 375.61 360.93 370.24 369.84 365.23 379.04 360.55 388.27 354.66 397.78 348.87 407.05 343.69" stroke-dasharray="6 2" transform="rotate(80.80000000000001, 400, 400)" opacity="0.09"></path><path d="M402.74 354.87C413.71 348.16 429.96 343.14 434.84 345.35 438.34 349.75 438.68 365.89 435.71 376.5 433.64 383.83 430.57 391.24 426.8 398.52 423.37 405.97 419.14 413.59 414.3 421.17 409.65 429.2 404.23 437.38 398.19 445.24 392.21 453.34 385.52 460.77 378.32 466.65 371.11 471.91 364.1 474.52 357.64 474.57 351.23 473.66 345.46 470.38 340.7 465.31 336.1 459.64 332.62 452.66 330.6 445.06 328.83 437.32 328.6 429.26 330.19 421.42 332.05 413.59 335.54 406.68 340.23 400.78 345.08 394.7 351.06 389.32 357.75 384.61 364.5 379.37 371.91 374.42 379.55 369.84 387.22 364.47 395.1 359.33 402.74 354.87" stroke-dasharray="4 6" transform="rotate(84.84, 400, 400)" opacity="0.23"></path><path d="M398.33 366.05C414.88 356.37 428.77 364.69 425.16 380.6 422.1 392.39 415.55 405.72 407.23 418.62 399.4 432.36 389.06 446.04 377.56 455.47 366.05 463.36 355.59 463.19 348.3 456.84 341.42 448.97 338.27 437.05 340.74 424.46 343.93 411.86 352.11 400.93 362.64 392.32 373.41 382.37 386.23 372.96 398.33 366.05" stroke-dasharray="10 3" transform="rotate(88.88, 400, 400)" opacity="0.11"></path><path d="M393.99 377.23C406.29 369.88 417.07 375.04 414.6 386.82 412.28 395.75 407.14 406.36 400.6 416.63 394.33 427.19 386.29 437.41 377.66 444.29 365.24 450.59 350.37 438.27 351.29 424.8 353.69 415.34 359.76 406.3 367.55 398.7 375.51 390.42 385 382.69 393.99 377.23" stroke-dasharray="6 4" transform="rotate(92.92, 400, 400)" opacity="0.73"></path><path d="M389.87 388.4C401.73 379.85 407.8 382.44 404.05 394.5 401.15 406.55 390.15 423.98 378.62 433.12 367.09 440.76 359.23 434.97 361.84 422.41 365.22 409.84 378 395.57 389.87 388.4" stroke-dasharray="3 8" transform="rotate(96.96, 400, 400)" opacity="0.47"></path></g></svg>